{"title":"Lone Star (1996, HDTVRip, 720p)","uid":7189369,"size":4734628790,"categoryP":"video","categoryS":"hd___movies","magnet":"?xt=urn:btih:bdb1b32f6c93a8db5c96c61e1e89c37b22c53354&amp;dn=Lone+Star+%281996%2C+HDTVRip%2C+720p%29&amp;tr=udp%3A%2F%2Ftracker.openbittorrent.com%3A80&amp;tr=udp%3A%2F%2Fopen.demonii.com%3A1337&amp;tr=udp%3A%2F%2Ftracker.coppersurfer.tk%3A6969&amp;tr=udp%3A%2F%2Fexodus.desync.com%3A6969","seeders":0,"leechers":1,"uploader":"dududus","files":6,"time":1334569562,"description":"Complete name                    : Lone.Star.1996.HDTVRip.720p.x264.AC3-2MBout.mkv\nFile size                        : 4.37 GiB\nDuration                         : 2h 15mn\nOverall bit rate                 : 4,624 Kbps\n\n\nVideo\nFormat                           : AVC\nCodec ID                         : V_MPEG4/ISO/AVC\nDuration                         : 2h 15mn\nBit rate                         : 4,236 Kbps\nWidth                            : 1,280 pixels\nHeight                           : 720 pixels\nDisplay aspect ratio             : 16:9\nFrame rate                       : 23.976 fps\nBit depth                        : 8 bits\nScan type                        : Progressive\nBits/(Pixel*Frame)               : 0.192\nStream size                      : 3.92 GiB (90%)\n\n\nAudio\nFormat                           : AC-3\nCodec ID                         : A_AC3\nDuration                         : 2h 15mn\nBit rate mode                    : Constant\nBit rate                         : 384 Kbps\nChannel(s)                       : 6 channels\nSampling rate                    : 48.0 KHz\nBit depth                        : 16 bits\nStream size                      : 372 MiB (8%)\nLanguage                         : English","torrent":{"xt":"urn:btih:bdb1b32f6c93a8db5c96c61e1e89c37b22c53354","amp;dn":"Lone+Star+%281996%2C+HDTVRip%2C+720p%29","amp;tr":["udp%3A%2F%2Ftracker.openbittorrent.com%3A80","udp%3A%2F%2Fopen.demonii.com%3A1337","udp%3A%2F%2Ftracker.coppersurfer.tk%3A6969","udp%3A%2F%2Fexodus.desync.com%3A6969"],"infoHash":"bdb1b32f6c93a8db5c96c61e1e89c37b22c53354","infoHashBuffer":{"type":"Buffer","data":[189,177,179,47,108,147,168,219,92,150,198,30,30,137,195,123,34,197,51,84]},"announce":[],"urlList":[]}}